<svg width="77" height="75" viewBox="0 0 77 75" fill="none" xmlns="http://www.w3.org/2000/svg">
<path d="M20.176 14.856C18.128 14.856 16.4853 15.304 15.248 16.2C14.0107 17.0533 13.008 18.1413 12.24 19.464C11.5147 20.744 10.8107 22.0453 10.128 23.368C10.0853 23.4533 10 23.5387 9.872 23.624C9.78667 23.7093 9.59467 23.752 9.296 23.752C8.99733 23.752 8.67733 23.7307 8.336 23.688C7.99467 23.6027 7.78133 23.5173 7.696 23.432C8.37867 21.5973 9.104 19.6773 9.872 17.672C10.64 15.624 11.3653 13.6187 12.048 11.656C12.2613 11.6987 12.7307 11.7627 13.456 11.848C14.1813 11.8907 14.9707 11.9333 15.824 11.976C16.72 11.976 17.5093 11.9973 18.192 12.04C18.9173 12.04 19.3867 12.04 19.6 12.04L27.728 11.976C30.16 11.9333 32.4213 11.8693 34.512 11.784C36.6027 11.6987 38.8853 11.5707 41.36 11.4C41.488 11.4427 41.5733 11.72 41.616 12.232C41.6587 12.7013 41.6373 13.1067 41.552 13.448C41.5093 13.4907 41.0613 14.0453 40.208 15.112C39.3973 16.1787 38.2667 17.608 36.816 19.4C35.408 21.1493 33.808 23.112 32.016 25.288C30.2667 27.4213 28.4533 29.64 26.576 31.944C24.6987 34.248 22.8853 36.488 21.136 38.664C19.3867 40.7973 17.808 42.7173 16.4 44.424C14.992 46.1307 13.8613 47.496 13.008 48.52C12.1973 49.544 11.792 50.056 11.792 50.056H24.336C26.64 50.056 28.624 49.3307 30.288 47.88C31.0133 47.1973 31.696 46.472 32.336 45.704C32.976 44.8933 33.68 43.784 34.448 42.376C34.576 42.12 34.8533 41.992 35.28 41.992C35.5787 41.992 35.92 42.0347 36.304 42.12C36.7307 42.2053 36.9653 42.2907 37.008 42.376C36.496 43.4853 35.8987 44.7013 35.216 46.024C34.576 47.304 33.936 48.5627 33.296 49.8C32.6987 50.9947 32.208 52.04 31.824 52.936C31.44 52.936 30.4373 52.936 28.816 52.936C27.1947 52.936 25.2533 52.936 22.992 52.936C20.7307 52.936 18.384 52.9573 15.952 53C13.52 53 11.2373 53 9.104 53C6.97067 53 5.24267 53 3.92 53C2.59733 53 1.936 53 1.936 53C1.552 53 1.21067 52.808 0.912 52.424C0.613333 52.04 0.528 51.784 0.656 51.656L30.864 14.856H20.176Z" fill="#DB504A"/>
<path d="M48.384 35.878C48.9173 35.878 49.4507 35.9634 49.984 36.134C50.5173 36.3047 50.9547 36.6034 51.296 37.03C51.6587 37.4354 51.84 38.0007 51.84 38.726C51.84 39.366 51.648 39.9634 51.264 40.518C50.9013 41.0727 50.4107 41.5634 49.792 41.99C49.1947 42.4167 48.5547 42.7794 47.872 43.078C47.2107 43.3767 46.5707 43.6114 45.952 43.782C45.3333 43.9314 44.832 44.006 44.448 44.006C44.4267 44.0487 44.4053 44.1767 44.384 44.39C44.384 44.582 44.384 44.7207 44.384 44.806C44.384 45.19 44.4267 45.5954 44.512 46.022C44.6187 46.4274 44.8107 46.7794 45.088 47.078C45.3653 47.3554 45.76 47.494 46.272 47.494C46.6347 47.494 46.9867 47.398 47.328 47.206C47.6907 46.9927 48.0213 46.758 48.32 46.502C48.64 46.246 48.896 46.0114 49.088 45.798C49.3013 45.5847 49.4187 45.4674 49.44 45.446C49.5893 45.446 49.7067 45.5847 49.792 45.862C49.8773 46.118 49.92 46.2994 49.92 46.406C49.8133 46.5767 49.5467 46.8647 49.12 47.27C48.6933 47.654 48.1813 48.07 47.584 48.518C47.008 48.9447 46.4 49.318 45.76 49.638C45.1413 49.9367 44.5867 50.086 44.096 50.086C42.9867 50.086 42.112 49.6914 41.472 48.902C40.832 48.0914 40.512 46.9607 40.512 45.51C40.512 44.358 40.7467 43.2167 41.216 42.086C41.7067 40.934 42.336 39.8887 43.104 38.95C43.872 38.0114 44.7147 37.2647 45.632 36.71C46.5707 36.1554 47.488 35.878 48.384 35.878ZM44.544 42.822C44.8427 42.822 45.1947 42.694 45.6 42.438C46.0053 42.182 46.4 41.8407 46.784 41.414C47.168 40.966 47.488 40.4754 47.744 39.942C48 39.3874 48.128 38.822 48.128 38.246C48.128 37.9474 48.0747 37.67 47.968 37.414C47.8827 37.158 47.6693 37.03 47.328 37.03C46.944 37.03 46.592 37.254 46.272 37.702C45.952 38.1287 45.664 38.6727 45.408 39.334C45.1733 39.974 44.9813 40.614 44.832 41.254C44.6827 41.894 44.5867 42.4167 44.544 42.822ZM62.2333 35.878C62.7879 35.878 63.3959 35.942 64.0573 36.07C64.7399 36.198 65.2413 36.3154 65.5613 36.422L63.6093 45.766C63.5879 45.83 63.5666 46.0007 63.5453 46.278C63.5239 46.534 63.5133 46.7047 63.5133 46.79C63.5133 46.9394 63.5453 47.0887 63.6093 47.238C63.6733 47.3874 63.7799 47.462 63.9293 47.462C64.1639 47.462 64.4519 47.3127 64.7933 47.014C65.1346 46.7154 65.4439 46.4167 65.7213 46.118C65.9986 45.798 66.1479 45.606 66.1693 45.542C66.2759 45.542 66.3719 45.6594 66.4573 45.894C66.5426 46.1287 66.5853 46.2994 66.5853 46.406C66.4573 46.662 66.2013 46.9927 65.8173 47.398C65.4546 47.8034 65.0279 48.2194 64.5373 48.646C64.0466 49.0727 63.5453 49.4354 63.0333 49.734C62.5213 50.0114 62.0519 50.15 61.6253 50.15C61.0919 50.15 60.6333 49.9794 60.2493 49.638C59.8653 49.2754 59.6733 48.7527 59.6733 48.07C59.6733 48.006 59.6733 47.9207 59.6733 47.814C59.6946 47.7074 59.7159 47.6007 59.7373 47.494C59.7586 47.366 59.7799 47.2487 59.8013 47.142C59.8226 47.0354 59.8439 46.95 59.8653 46.886C59.6519 47.27 59.2999 47.718 58.8093 48.23C58.3399 48.742 57.7959 49.19 57.1773 49.574C56.5799 49.9367 55.9613 50.118 55.3213 50.118C54.4466 50.118 53.7746 49.7447 53.3053 48.998C52.8573 48.2514 52.6333 47.3554 52.6333 46.31C52.6333 44.902 52.9426 43.5794 53.5613 42.342C54.1799 41.0834 54.9693 39.974 55.9293 39.014C56.9106 38.0327 57.9559 37.2647 59.0653 36.71C60.1959 36.1554 61.2519 35.878 62.2333 35.878ZM60.4733 37.574C59.9399 37.574 59.4386 37.798 58.9693 38.246C58.4999 38.6727 58.0839 39.2594 57.7213 40.006C57.3586 40.7314 57.0706 41.542 56.8573 42.438C56.6653 43.334 56.5693 44.2407 56.5693 45.158C56.5693 45.9047 56.6653 46.4594 56.8573 46.822C57.0706 47.1847 57.3479 47.366 57.6893 47.366C58.0519 47.366 58.4359 47.0674 58.8413 46.47C59.2679 45.8514 59.6733 45.062 60.0573 44.102C60.4413 43.142 60.7399 42.15 60.9533 41.126L61.5613 37.958C61.3479 37.702 60.9853 37.574 60.4733 37.574ZM71.4353 32.39C71.4779 32.0914 71.5313 31.782 71.5953 31.462C71.6806 31.142 71.7233 30.8967 71.7233 30.726C71.7233 30.534 71.6059 30.3954 71.3713 30.31C71.1366 30.2247 70.8699 30.182 70.5713 30.182C70.2939 30.1607 70.0593 30.15 69.8673 30.15C69.8459 30.15 69.8246 30.15 69.8033 30.15C69.7606 30.086 69.7499 29.9367 69.7713 29.702C69.8139 29.446 69.8673 29.286 69.9313 29.222C70.3579 29.1794 70.8593 29.1154 71.4353 29.03C72.0113 28.9234 72.5766 28.8167 73.1313 28.71C73.7073 28.6034 74.2086 28.4967 74.6353 28.39C75.0833 28.2834 75.3926 28.198 75.5633 28.134C75.6486 28.1767 75.7019 28.262 75.7233 28.39C75.7446 28.518 75.7552 28.6354 75.7552 28.742C75.7552 28.8274 75.7339 29.0087 75.6913 29.286C75.6486 29.5634 75.5953 29.8727 75.5312 30.214C75.4673 30.534 75.4033 30.822 75.3393 31.078L72.4593 45.766C72.4379 45.8514 72.4059 46.022 72.3633 46.278C72.3419 46.534 72.3313 46.7047 72.3313 46.79C72.3313 46.9394 72.3633 47.0887 72.4273 47.238C72.5126 47.3874 72.6299 47.462 72.7793 47.462C73.0139 47.462 73.2913 47.3127 73.6113 47.014C73.9526 46.7154 74.2619 46.4167 74.5393 46.118C74.8166 45.798 74.9659 45.606 74.9873 45.542C75.0939 45.542 75.1899 45.6594 75.2753 45.894C75.3819 46.1287 75.4353 46.2994 75.4353 46.406C75.3073 46.662 75.0513 46.9927 74.6673 47.398C74.3046 47.8034 73.8779 48.2194 73.3873 48.646C72.8966 49.0727 72.3953 49.4354 71.8833 49.734C71.3713 50.0114 70.9019 50.15 70.4753 50.15C69.9633 50.15 69.5046 49.9794 69.0993 49.638C68.6939 49.2754 68.4913 48.6994 68.4913 47.91C68.4913 47.6754 68.5339 47.3447 68.6193 46.918C68.7046 46.47 68.7579 46.182 68.7793 46.054L71.4353 32.39Z" fill="#DB504A"/>
</svg>
