<svg width="224" height="200" viewBox="0 0 224 200" fill="none" xmlns="http://www.w3.org/2000/svg">
<ellipse cx="111.998" cy="100" rx="111.174" ry="100" fill="#DB504A"/>
<path d="M171.749 144.65C179.732 136.011 185.284 125.769 187.936 114.791C190.587 103.813 190.261 92.4224 186.983 81.5821C183.706 70.7419 177.574 60.7712 169.106 52.5134C160.639 44.2557 150.085 37.9538 138.337 34.141C126.589 30.3281 113.993 29.1165 101.614 30.6085C89.2356 32.1004 77.4385 36.2522 67.2211 42.7126C57.0036 49.1729 48.6662 57.7518 42.9143 67.7234C37.1624 77.6951 34.1652 88.7661 34.1761 100C34.1803 116.331 40.5783 132.139 52.2475 144.65L52.1363 144.735C52.5254 145.155 52.9701 145.515 53.3703 145.93C53.8706 146.445 54.4098 146.93 54.9268 147.43C56.4832 148.95 58.0841 150.41 59.7629 151.78C60.2743 152.2 60.8023 152.59 61.3193 152.99C63.0981 154.37 64.9269 155.68 66.8224 156.9C67.067 157.05 67.2894 157.245 67.5339 157.4V157.34C80.553 165.581 96.0841 170.004 112.004 170.004C127.923 170.004 143.454 165.581 156.473 157.34V157.4C156.718 157.245 156.935 157.05 157.185 156.9C159.075 155.675 160.909 154.37 162.688 152.99C163.205 152.59 163.733 152.195 164.244 151.78C165.923 150.405 167.524 148.95 169.08 147.43C169.597 146.93 170.131 146.445 170.637 145.93C171.032 145.515 171.482 145.155 171.871 144.73L171.749 144.65ZM111.998 60.0001C116.945 60.0001 121.782 61.3197 125.895 63.792C130.009 66.2643 133.215 69.7783 135.108 73.8897C137.001 78.001 137.497 82.525 136.532 86.8896C135.566 91.2542 133.184 95.2633 129.686 98.41C126.187 101.557 121.73 103.7 116.878 104.568C112.026 105.436 106.996 104.99 102.426 103.287C97.8548 101.584 93.9481 98.7005 91.1995 95.0004C88.4509 91.3003 86.9839 86.9501 86.9839 82.5001C86.9839 76.5327 89.6193 70.8097 94.3104 66.5902C99.0014 62.3706 105.364 60.0001 111.998 60.0001V60.0001ZM67.5673 144.65C67.6637 138.085 70.6299 131.818 75.824 127.205C81.0181 122.592 88.0225 120.003 95.3219 120H128.674C135.974 120.003 142.978 122.592 148.172 127.205C153.366 131.818 156.332 138.085 156.429 144.65C144.238 154.532 128.409 160 111.998 160C95.5873 160 79.7584 154.532 67.5673 144.65V144.65Z" fill="white"/>
</svg>
