<svg width="224" height="200" viewBox="0 0 224 200" fill="none" xmlns="http://www.w3.org/2000/svg">
<ellipse cx="112" cy="100" rx="111.174" ry="100" fill="#DB504A"/>
<g clip-path="url(#clip0)">
<path d="M85.098 79.1893L86.0466 79.1253C86.3901 79.0955 86.7186 78.9983 87.0021 78.8427L86.9953 78.848C87.9034 81.312 89.0147 83.904 90.4038 86.6187C92.186 90.1707 93.9411 93.088 95.9062 95.904L95.6352 95.4773C95.4725 97.4187 95.276 99.4133 95.0185 101.344C94.9057 102.483 94.612 103.606 94.1444 104.688L94.1782 104.592C94.0969 104.619 93.9817 115.685 93.9817 115.685C93.9842 119.119 95.4547 122.452 98.1564 125.149C100.858 127.845 104.634 129.747 108.876 130.549L109.012 130.571C109.2 130.186 109.532 129.854 109.963 129.62C110.395 129.386 110.907 129.26 111.431 129.259H115.32C115.84 129.264 116.346 129.39 116.775 129.621C117.204 129.851 117.537 130.176 117.733 130.555L117.74 130.571C122.018 129.792 125.837 127.9 128.578 125.2C131.319 122.501 132.823 119.152 132.844 115.696V115.691C132.844 115.691 132.607 104.672 132.485 104.597C132.081 103.566 131.804 102.507 131.658 101.435L131.651 101.355C131.414 99.4133 131.258 97.4667 131.035 95.488C132.708 93.1093 134.464 90.1973 136.009 87.1947L136.266 86.6293C137.655 83.9147 138.733 81.328 139.675 78.8587C139.953 79.0142 140.277 79.1115 140.616 79.1413H140.623L141.579 79.2053C142.731 79.3013 143.747 78.5547 143.842 77.3973L144.872 67.0986V67.088C144.871 66.6736 144.679 66.2735 144.331 65.9624C143.983 65.6513 143.504 65.4504 142.981 65.3973H142.853C143.755 60.0346 143.196 54.5821 141.213 49.4026L141.301 49.6746C139.39 46.3345 136.483 43.4065 132.827 41.1392C129.171 38.8719 124.874 37.3321 120.301 36.6506L120.125 36.6293C117.908 36.2794 115.656 36.0796 113.396 36.032H113.254C110.889 36.0653 108.534 36.276 106.22 36.6613L106.464 36.6293C101.893 37.2971 97.592 38.8168 93.9207 41.0614C90.2494 43.306 87.3147 46.2101 85.3622 49.5306L85.2877 49.6746C83.3368 54.8341 82.8168 60.2633 83.763 65.5946L83.7359 65.3973C83.2123 65.4419 82.7279 65.6368 82.3754 65.9448C82.0229 66.2527 81.8269 66.6521 81.825 67.0666V67.104L82.855 77.4027C82.9499 78.5867 83.9799 79.3013 85.0912 79.2053L85.098 79.1893Z" fill="white"/>
<path d="M185.97 147.349C185.496 131.136 183.436 127.467 182.325 124.981C181.884 123.984 181.525 117.243 167.376 112.869C158.702 110.181 147.508 110.128 138.035 106.976V115.744C138.025 120.239 136.029 124.591 132.389 128.055C128.75 131.519 123.693 133.879 118.085 134.731L117.929 134.752C117.828 135.225 117.518 135.655 117.055 135.967C116.592 136.279 116.004 136.453 115.395 136.459H115.273V143.072C115.273 146.175 116.839 149.152 119.627 151.346C122.416 153.541 126.197 154.773 130.14 154.773C134.083 154.773 137.865 153.541 140.653 151.346C143.441 149.152 145.007 146.175 145.007 143.072V138.453C142.961 138.217 141.095 137.399 139.764 136.153C138.432 134.908 137.726 133.321 137.781 131.694C137.835 130.066 138.645 128.511 140.057 127.322C141.47 126.133 143.387 125.392 145.447 125.241C147.506 125.089 149.565 125.537 151.233 126.499C152.902 127.461 154.064 128.871 154.501 130.463C154.937 132.054 154.618 133.716 153.603 135.134C152.588 136.553 150.947 137.629 148.992 138.16L148.931 138.176V143.323C148.931 147.246 146.951 151.01 143.425 153.784C139.9 156.559 135.119 158.117 130.133 158.117C125.148 158.117 120.367 156.559 116.842 153.784C113.316 151.01 111.336 147.246 111.336 143.323V143.056V143.067V136.395C110.756 136.364 110.206 136.179 109.775 135.871C109.345 135.564 109.059 135.15 108.964 134.699V134.688C103.35 133.845 98.2833 131.493 94.6314 128.033C90.9795 124.573 88.9699 120.221 88.9469 115.723V106.885C79.4329 110.101 68.1706 110.165 59.4495 112.859C45.2598 117.227 44.9345 123.952 44.5009 124.965C43.4167 127.461 41.3295 131.115 40.8552 147.339C40.7739 149.472 40.8552 152.741 49.0275 155.6C66.8221 161.093 89.7465 162.8 112.346 164.027H114.514C137.16 162.811 160.051 161.109 177.832 155.6C185.97 152.757 186.045 149.509 185.97 147.355V147.349ZM86.487 140.736H78.0437V147.408H72.0128V140.757H63.5695V136.011H72.0128V129.365H78.0437V136.011H86.487V140.736Z" fill="white"/>
<path d="M150.795 131.813V131.808C150.794 130.856 150.313 129.944 149.457 129.271C148.601 128.599 147.442 128.221 146.232 128.221C145.023 128.222 143.864 128.6 143.009 129.273C142.154 129.946 141.674 130.859 141.674 131.811C141.674 132.762 142.154 133.675 143.009 134.348C143.864 135.021 145.023 135.4 146.232 135.4C147.442 135.4 148.601 135.023 149.457 134.35C150.313 133.678 150.794 132.765 150.795 131.813V131.813Z" fill="white"/>
</g>
<defs>
<clipPath id="clip0">
<rect width="142.303" height="128" fill="white" transform="translate(40.8485 36)"/>
</clipPath>
</defs>
</svg>
