<svg width="224" height="200" viewBox="0 0 224 200" fill="none" xmlns="http://www.w3.org/2000/svg">
<ellipse cx="112.114" cy="100" rx="111.174" ry="100" fill="#DB504A"/>
<path d="M92.1023 118C74.2922 118 38.7386 126.04 38.7386 142V154H145.466V142C145.466 126.04 109.912 118 92.1023 118ZM123.787 76H118.784C118.784 67.12 113.381 59.5 105.443 55.3V61C105.443 62.68 103.976 64 102.108 64C100.24 64 98.7727 62.68 98.7727 61V52.84C96.6382 52.36 94.4369 52 92.1023 52C89.7676 52 87.5664 52.36 85.4318 52.84V61C85.4318 62.68 83.9643 64 82.0966 64C80.2289 64 78.7614 62.68 78.7614 61V55.3C70.8235 59.5 65.4205 67.12 65.4205 76H60.4176V82H123.787V76ZM92.1023 106C104.509 106 114.849 98.32 117.85 88H66.3543C69.356 98.32 79.6952 106 92.1023 106ZM178.685 65.38L184.888 60.4L179.885 52.6L171.948 54.94C171.014 54.28 169.946 53.74 168.813 53.32L167.145 46H157.139L155.472 53.32C154.338 53.74 153.27 54.28 152.27 54.94L144.399 52.6L139.396 60.4L145.599 65.38C145.466 66.4 145.466 67.48 145.599 68.5L139.396 73.6L144.399 81.4L152.403 79.12C153.27 79.72 154.271 80.2 155.271 80.62L157.139 88H167.145L168.946 80.68C170.013 80.26 170.947 79.78 171.881 79.18L179.819 81.46L184.822 73.66L178.618 68.56C178.818 67.42 178.751 66.4 178.685 65.38V65.38ZM162.142 74.5C159.931 74.5 157.81 73.7098 156.246 72.3033C154.682 70.8968 153.804 68.9891 153.804 67C153.804 65.0109 154.682 63.1032 156.246 61.6967C157.81 60.2902 159.931 59.5 162.142 59.5C164.353 59.5 166.474 60.2902 168.038 61.6967C169.602 63.1032 170.48 65.0109 170.48 67C170.48 68.9891 169.602 70.8968 168.038 72.3033C166.474 73.7098 164.353 74.5 162.142 74.5ZM161.475 92.74L155.805 94.42C155.138 93.94 154.404 93.58 153.604 93.28L152.403 88H145.266L144.065 93.22C143.265 93.52 142.464 93.94 141.797 94.36L136.194 92.68L132.592 98.26L136.994 101.8C136.928 102.58 136.928 103.3 136.994 104.02L132.592 107.68L136.194 113.26L141.931 111.64C142.598 112.06 143.265 112.42 143.998 112.72L145.199 118H152.336L153.604 112.78C154.338 112.48 155.071 112.12 155.738 111.7L161.408 113.32L165.01 107.74L160.608 104.08C160.675 103.3 160.675 102.58 160.608 101.86L165.01 98.32L161.475 92.74ZM148.801 108.34C145.533 108.34 142.864 105.94 142.864 103C142.864 100.06 145.533 97.66 148.801 97.66C152.07 97.66 154.738 100.06 154.738 103C154.738 105.94 152.07 108.34 148.801 108.34Z" fill="white"/>
</svg>
